<?xml version="1.0" encoding="UTF-8" standalone="no"?>
<!-- Created with Inkscape (http://www.inkscape.org/) -->

<svg
   version="1.1"
   id="svg1"
   width="752.58765"
   height="112.41064"
   viewBox="0 0 752.58761 112.41064"
   xmlns="http://www.w3.org/2000/svg"
   xmlns:svg="http://www.w3.org/2000/svg">
  <defs
     id="defs1">
    <clipPath
       clipPathUnits="userSpaceOnUse"
       id="clipPath441">
      <path
         d="M 0,524.16 H 777.6 V 0 H 0 Z"
         id="path441" />
    </clipPath>
    <clipPath
       clipPathUnits="userSpaceOnUse"
       id="clipPath443">
      <path
         d="M 0,524.16 H 777.6 V 0 H 0 Z"
         transform="translate(-274.27111,-133.8499)"
         id="path443" />
    </clipPath>
    <clipPath
       clipPathUnits="userSpaceOnUse"
       id="clipPath445">
      <path
         d="M 0,524.16 H 777.6 V 0 H 0 Z"
         transform="translate(-312.66481,-136.494)"
         id="path445" />
    </clipPath>
    <clipPath
       clipPathUnits="userSpaceOnUse"
       id="clipPath447">
      <path
         d="M 0,524.16 H 777.6 V 0 H 0 Z"
         transform="translate(-348.40831,-136.6732)"
         id="path447" />
    </clipPath>
    <clipPath
       clipPathUnits="userSpaceOnUse"
       id="clipPath449">
      <path
         d="M 0,524.16 H 777.6 V 0 H 0 Z"
         transform="translate(-239.67271,-166.88391)"
         id="path449" />
    </clipPath>
    <clipPath
       clipPathUnits="userSpaceOnUse"
       id="clipPath451">
      <path
         d="M 0,524.16 H 777.6 V 0 H 0 Z"
         transform="translate(-238.68931,-118.803)"
         id="path451" />
    </clipPath>
    <clipPath
       clipPathUnits="userSpaceOnUse"
       id="clipPath453">
      <path
         d="M 0,524.16 H 777.6 V 0 H 0 Z"
         transform="translate(-408.45159,-166.20351)"
         id="path453" />
    </clipPath>
    <clipPath
       clipPathUnits="userSpaceOnUse"
       id="clipPath455">
      <path
         d="M 0,524.16 H 777.6 V 0 H 0 Z"
         transform="translate(-405.34584,-166.20351)"
         id="path455" />
    </clipPath>
    <clipPath
       clipPathUnits="userSpaceOnUse"
       id="clipPath457">
      <path
         d="M 0,524.16 H 777.6 V 0 H 0 Z"
         transform="translate(-449.72904,-133.77771)"
         id="path457" />
    </clipPath>
    <clipPath
       clipPathUnits="userSpaceOnUse"
       id="clipPath459">
      <path
         d="M 0,524.16 H 777.6 V 0 H 0 Z"
         transform="translate(-559.16934,-162.85701)"
         id="path459" />
    </clipPath>
    <clipPath
       clipPathUnits="userSpaceOnUse"
       id="clipPath461">
      <path
         d="M 0,524.16 H 777.6 V 0 H 0 Z"
         transform="translate(-595.80121,-162.85701)"
         id="path461" />
    </clipPath>
    <clipPath
       clipPathUnits="userSpaceOnUse"
       id="clipPath463">
      <path
         d="M 0,524.16 H 777.6 V 0 H 0 Z"
         transform="translate(-607.52582,-122.8132)"
         id="path463" />
    </clipPath>
    <clipPath
       clipPathUnits="userSpaceOnUse"
       id="clipPath465">
      <path
         d="M 0,524.16 H 777.6 V 0 H 0 Z"
         transform="translate(-644.39319,-122.8132)"
         id="path465" />
    </clipPath>
    <clipPath
       clipPathUnits="userSpaceOnUse"
       id="clipPath467">
      <path
         d="M 0,524.16 H 777.6 V 0 H 0 Z"
         transform="translate(-508.08654,-163.3255)"
         id="path467" />
    </clipPath>
    <clipPath
       clipPathUnits="userSpaceOnUse"
       id="clipPath469">
      <path
         d="M 0,524.16 H 777.6 V 0 H 0 Z"
         transform="translate(-504.98071,-163.3255)"
         id="path469" />
    </clipPath>
    <clipPath
       clipPathUnits="userSpaceOnUse"
       id="clipPath471">
      <path
         d="M 0,524.16 H 777.6 V 0 H 0 Z"
         id="path471" />
    </clipPath>
    <clipPath
       clipPathUnits="userSpaceOnUse"
       id="clipPath473">
      <path
         d="M 0,524.16 H 777.6 V 0 H 0 Z"
         transform="translate(-240.36893,-102.3358)"
         id="path473" />
    </clipPath>
    <clipPath
       clipPathUnits="userSpaceOnUse"
       id="clipPath475">
      <path
         d="M 0,524.16 H 777.6 V 0 H 0 Z"
         transform="translate(-255.24413,-101.66271)"
         id="path475" />
    </clipPath>
    <clipPath
       clipPathUnits="userSpaceOnUse"
       id="clipPath477">
      <path
         d="M 0,524.16 H 777.6 V 0 H 0 Z"
         transform="translate(-267.30421,-92.453905)"
         id="path477" />
    </clipPath>
    <clipPath
       clipPathUnits="userSpaceOnUse"
       id="clipPath479">
      <path
         d="M 0,524.16 H 777.6 V 0 H 0 Z"
         transform="translate(-288.02363,-97.394905)"
         id="path479" />
    </clipPath>
    <clipPath
       clipPathUnits="userSpaceOnUse"
       id="clipPath481">
      <path
         d="M 0,524.16 H 777.6 V 0 H 0 Z"
         transform="translate(-298.80878,-102.0168)"
         id="path481" />
    </clipPath>
    <clipPath
       clipPathUnits="userSpaceOnUse"
       id="clipPath483">
      <path
         d="M 0,524.16 H 777.6 V 0 H 0 Z"
         transform="translate(-315.26288,-94.481702)"
         id="path483" />
    </clipPath>
    <clipPath
       clipPathUnits="userSpaceOnUse"
       id="clipPath485">
      <path
         d="M 0,524.16 H 777.6 V 0 H 0 Z"
         transform="translate(-333.09383,-102.3876)"
         id="path485" />
    </clipPath>
    <clipPath
       clipPathUnits="userSpaceOnUse"
       id="clipPath487">
      <path
         d="M 0,524.16 H 777.6 V 0 H 0 Z"
         id="path487" />
    </clipPath>
    <clipPath
       clipPathUnits="userSpaceOnUse"
       id="clipPath489">
      <path
         d="M 0,524.16 H 777.6 V 0 H 0 Z"
         transform="translate(-363.71311,-92.453905)"
         id="path489" />
    </clipPath>
    <clipPath
       clipPathUnits="userSpaceOnUse"
       id="clipPath491">
      <path
         d="M 0,524.16 H 777.6 V 0 H 0 Z"
         transform="translate(-372.54991,-92.453905)"
         id="path491" />
    </clipPath>
    <clipPath
       clipPathUnits="userSpaceOnUse"
       id="clipPath493">
      <path
         d="M 0,524.16 H 777.6 V 0 H 0 Z"
         transform="translate(-396.58328,-94.481702)"
         id="path493" />
    </clipPath>
    <clipPath
       clipPathUnits="userSpaceOnUse"
       id="clipPath495">
      <path
         d="M 0,524.16 H 777.6 V 0 H 0 Z"
         transform="translate(-408.44671,-102.3358)"
         id="path495" />
    </clipPath>
    <clipPath
       clipPathUnits="userSpaceOnUse"
       id="clipPath497">
      <path
         d="M 0,524.16 H 777.6 V 0 H 0 Z"
         transform="translate(-436.60389,-93.5329)"
         id="path497" />
    </clipPath>
    <clipPath
       clipPathUnits="userSpaceOnUse"
       id="clipPath499">
      <path
         d="M 0,524.16 H 777.6 V 0 H 0 Z"
         transform="translate(-453.09099,-98.651005)"
         id="path499" />
    </clipPath>
    <clipPath
       clipPathUnits="userSpaceOnUse"
       id="clipPath501">
      <path
         d="M 0,524.16 H 777.6 V 0 H 0 Z"
         transform="translate(-464.63754,-102.3876)"
         id="path501" />
    </clipPath>
    <clipPath
       clipPathUnits="userSpaceOnUse"
       id="clipPath503">
      <path
         d="M 0,524.16 H 777.6 V 0 H 0 Z"
         transform="translate(-479.79661,-102.3876)"
         id="path503" />
    </clipPath>
    <clipPath
       clipPathUnits="userSpaceOnUse"
       id="clipPath505">
      <path
         d="M 0,524.16 H 777.6 V 0 H 0 Z"
         transform="translate(-492.22839,-92.453905)"
         id="path505" />
    </clipPath>
    <clipPath
       clipPathUnits="userSpaceOnUse"
       id="clipPath507">
      <path
         d="M 0,524.16 H 777.6 V 0 H 0 Z"
         transform="translate(-507.63564,-92.453905)"
         id="path507" />
    </clipPath>
    <clipPath
       clipPathUnits="userSpaceOnUse"
       id="clipPath509">
      <path
         d="M 0,524.16 H 777.6 V 0 H 0 Z"
         transform="translate(-537.09481,-102.63651)"
         id="path509" />
    </clipPath>
    <clipPath
       clipPathUnits="userSpaceOnUse"
       id="clipPath511">
      <path
         d="M 0,524.16 H 777.6 V 0 H 0 Z"
         transform="translate(-563.66761,-100.5118)"
         id="path511" />
    </clipPath>
    <clipPath
       clipPathUnits="userSpaceOnUse"
       id="clipPath513">
      <path
         d="M 0,524.16 H 777.6 V 0 H 0 Z"
         transform="translate(-577.46289,-101.66271)"
         id="path513" />
    </clipPath>
    <clipPath
       clipPathUnits="userSpaceOnUse"
       id="clipPath515">
      <path
         d="M 0,524.16 H 777.6 V 0 H 0 Z"
         transform="translate(-598.14969,-94.481702)"
         id="path515" />
    </clipPath>
    <clipPath
       clipPathUnits="userSpaceOnUse"
       id="clipPath517">
      <path
         d="M 0,524.16 H 777.6 V 0 H 0 Z"
         transform="translate(-610.01274,-102.3358)"
         id="path517" />
    </clipPath>
    <clipPath
       clipPathUnits="userSpaceOnUse"
       id="clipPath519">
      <path
         d="M 0,524.16 H 777.6 V 0 H 0 Z"
         transform="translate(-626.99589,-100.617)"
         id="path519" />
    </clipPath>
    <clipPath
       clipPathUnits="userSpaceOnUse"
       id="clipPath521">
      <path
         d="M 0,524.16 H 777.6 V 0 H 0 Z"
         id="path521" />
    </clipPath>
    <clipPath
       clipPathUnits="userSpaceOnUse"
       id="clipPath523">
      <path
         d="M 0,524.16 H 777.6 V 0 H 0 Z"
         transform="translate(-645.25404,-92.453905)"
         id="path523" />
    </clipPath>
    <clipPath
       clipPathUnits="userSpaceOnUse"
       id="clipPath525">
      <path
         d="M 0,524.16 H 777.6 V 0 H 0 Z"
         transform="translate(-669.28779,-94.481702)"
         id="path525" />
    </clipPath>
  </defs>
  <g
     id="layer-MC0"
     transform="translate(-2253.8414,-468.02802)">
    <path
       id="path440"
       d="m 163.538,118.215 h -10.084 v 25.21 h 10.084 z m -11.161,-10.784 h -10.084 v 25.209 h 10.084 z m -11.161,10.784 h -10.084 v 25.21 h 10.084 z m -10.083,36.325 h 32.404 v -10.084 h -32.404 z m 16.202,18.599 c -23.281,0 -42.154,-18.873 -42.154,-42.154 0,-23.281 18.873,-42.154 42.154,-42.154 23.281,0 42.154,18.873 42.154,42.154 0,23.281 -18.873,42.154 -42.154,42.154"
       style="fill:#003465;fill-opacity:1;fill-rule:nonzero;stroke:none"
       transform="matrix(1.3333333,0,0,-1.3333333,2113.6,698.88)"
       clip-path="url(#clipPath441)" />
    <path
       id="path442"
       d="M 0,0 0.859,3.1 C 0.97,3.499 1.333,3.776 1.749,3.776 H 11.34 L 5.023,26.3 H 4.249 L -5.345,-7.903 c -0.179,-0.656 -0.477,-1.073 -1.072,-1.073 h -4.052 c -0.537,0 -0.894,0.417 -0.716,1.073 L 0.017,31.782 c 0.18,0.597 0.537,0.954 1.073,0.954 h 7.091 c 0.537,0 0.894,-0.357 1.073,-0.954 L 20.456,-7.903 c 0.179,-0.656 -0.119,-1.073 -0.715,-1.073 h -4.052 c -0.596,0 -0.893,0.417 -1.072,1.073 L 12.71,-1.169 H 0.889 C 0.279,-1.169 -0.163,-0.588 0,0"
       style="fill:#003465;fill-opacity:1;fill-rule:nonzero;stroke:none"
       transform="matrix(1.3333333,0,0,-1.3333333,2479.2948,520.41347)"
       clip-path="url(#clipPath443)" />
    <path
       id="path444"
       d="m 0,0 v -10.785 c 0,-0.461 -0.373,-0.835 -0.835,-0.835 h -4.052 c -0.46,0 -0.833,0.374 -0.833,0.835 v 40.043 c 0,0.46 0.373,0.833 0.833,0.833 h 15.136 c 8.64,0 12.275,-4.23 12.275,-11.976 v -6.138 c 0,-5.244 -1.668,-8.878 -5.422,-10.666 l 5.244,-11.679 c 0.357,-0.775 0,-1.252 -0.835,-1.252 h -3.694 c -0.536,0 -1.013,0.239 -1.252,0.775 L 11.739,0.06 C 11.262,0 10.726,0 10.249,0 H 3.984 C 3.512,0 3.129,0.383 3.129,0.855 v 3.474 c 0,0.472 0.383,0.855 0.855,0.855 h 5.967 c 4.589,0 6.853,1.847 6.853,6.912 v 5.84 c 0,5.065 -2.264,6.971 -6.853,6.971 H 0 V 5.184"
       style="fill:#003465;fill-opacity:1;fill-rule:nonzero;stroke:none"
       transform="matrix(1.3333333,0,0,-1.3333333,2530.4864,516.888)"
       clip-path="url(#clipPath445)" />
    <path
       id="path446"
       d="m 0,0 v 18.115 c 0,7.687 3.814,12.096 12.394,12.096 h 4.887 c 8.64,0 12.275,-4.231 12.275,-11.918 v -0.298 c 0,-0.476 -0.298,-0.774 -0.775,-0.774 H 24.61 c -0.477,0 -0.774,0.298 -0.774,0.774 0,5.244 -2.503,7.032 -6.973,7.032 H 12.692 C 8.104,25.027 5.72,23.001 5.72,17.936 V 0.178 c 0,-5.124 2.384,-7.091 6.972,-7.091 h 4.171 c 4.588,0 6.973,1.967 6.973,7.091 v 6.436 h -8.283 c -0.597,0 -0.894,0.239 -0.894,0.835 v 3.336 c 0,0.596 0.297,0.834 0.894,0.834 h 12.93 c 0.655,0 1.073,-0.357 1.073,-1.072 L 29.556,0 c 0,-7.687 -3.814,-12.097 -12.394,-12.097 H 12.394 C 3.814,-12.097 0,-7.687 0,0"
       style="fill:#003465;fill-opacity:1;fill-rule:nonzero;stroke:none"
       transform="matrix(1.3333333,0,0,-1.3333333,2578.1444,516.64907)"
       clip-path="url(#clipPath447)" />
    <path
       id="path448"
       d="m 0,0 h -5.184 c -8.581,0 -12.394,-4.41 -12.394,-12.096 v -18.115 c 0,-6.247 2.52,-10.329 8.069,-11.639 0.665,-0.157 1.299,0.367 1.299,1.051 v 3.449 c 0,0.41 -0.233,0.784 -0.603,0.961 -2.026,0.972 -3.045,2.974 -3.045,6.357 v 17.757 c 0,5.065 2.323,7.091 6.971,7.091 h 4.589 c 4.588,0 6.971,-2.026 6.971,-7.091 v -17.757 c 0,-3.371 -1.036,-5.37 -3.049,-6.346 -0.367,-0.178 -0.599,-0.55 -0.599,-0.958 v -3.463 c 0,-0.684 0.634,-1.208 1.299,-1.051 5.55,1.31 8.07,5.392 8.07,11.639 v 18.115 C 12.394,-4.41 8.581,0 0,0"
       style="fill:#003465;fill-opacity:1;fill-rule:nonzero;stroke:none"
       transform="matrix(1.3333333,0,0,-1.3333333,2433.1636,476.36813)"
       clip-path="url(#clipPath449)" />
    <path
       id="path450"
       d="m 0,0 h -3.277 c -0.597,0 -0.835,0.298 -0.835,0.835 v 15.254 c 0,0.536 0.238,0.834 0.835,0.834 H 0 c 0.596,0 0.894,-0.298 0.894,-0.834 V 0.835 C 0.894,0.298 0.596,0 0,0"
       style="fill:#003465;fill-opacity:1;fill-rule:nonzero;stroke:none"
       transform="matrix(1.3333333,0,0,-1.3333333,2431.8524,540.476)"
       clip-path="url(#clipPath451)" />
    <path
       id="path452"
       d="m 0,0 v -3.822 c 0,-0.378 0.304,-0.68 0.681,-0.69 4.276,-0.121 7.064,-1.566 7.027,-7.083 V -29.352 C 7.864,-35.463 3.751,-36.534 0.7,-36.476 0.314,-36.468 0,-36.778 0,-37.164 v -3.786 c 0,-0.376 0.301,-0.688 0.677,-0.692 6.589,-0.071 12.752,2.245 12.752,12.112 v 18.114 C 13.682,-2.327 8.139,0.726 0.681,0.692 0.304,0.69 0,0.377 0,0"
       style="fill:#003465;fill-opacity:1;fill-rule:nonzero;stroke:none"
       transform="matrix(1.3333333,0,0,-1.3333333,2658.2021,477.27533)"
       clip-path="url(#clipPath453)" />
    <path
       id="path454"
       d="m 0,0 v -3.822 c 0,-0.378 -0.304,-0.68 -0.682,-0.69 -4.275,-0.121 -7.063,-1.566 -7.026,-7.083 v -17.757 c -0.156,-6.111 3.957,-7.182 7.008,-7.124 0.386,0.008 0.7,-0.302 0.7,-0.688 v -3.786 c 0,-0.376 -0.302,-0.688 -0.678,-0.692 -6.589,-0.071 -12.751,2.245 -12.751,12.112 v 18.114 C -13.682,-2.327 -8.14,0.726 -0.682,0.692 -0.305,0.69 0,0.377 0,0"
       style="fill:#003465;fill-opacity:1;fill-rule:nonzero;stroke:none"
       transform="matrix(1.3333333,0,0,-1.3333333,2654.0611,477.27533)"
       clip-path="url(#clipPath455)" />
    <path
       id="path456"
       d="m 0,0 v 18.115 c 0,7.687 3.814,12.096 12.394,12.096 h 4.887 c 8.64,0 12.274,-4.231 12.274,-11.918 v -0.297 c 0,-0.477 -0.298,-0.775 -0.774,-0.775 H 24.61 c -0.477,0 -0.775,0.298 -0.775,0.775 0,5.243 -2.503,7.031 -6.972,7.031 H 12.692 C 8.104,25.027 5.72,23.001 5.72,17.936 V 0.178 c 0,-5.124 2.384,-7.091 6.972,-7.091 h 4.171 c 4.469,0 6.972,1.729 6.972,6.675 0,0.476 0.298,0.774 0.775,0.774 h 4.171 c 0.476,0 0.774,-0.298 0.774,-0.774 v -0.298 c 0,-7.39 -3.634,-11.561 -12.274,-11.561 H 12.394 C 3.814,-12.097 0,-7.687 0,0"
       style="fill:#003465;fill-opacity:1;fill-rule:nonzero;stroke:none"
       transform="matrix(1.3333333,0,0,-1.3333333,2713.2387,520.50973)"
       clip-path="url(#clipPath457)" />
    <path
       id="path458"
       d="M 0,0 V -3.516 C 0,-4.112 -0.238,-4.35 -0.835,-4.35 h -18.353 v -13.11 h 16.924 c 0.596,0 0.833,-0.238 0.833,-0.834 v -3.337 c 0,-0.596 -0.237,-0.833 -0.833,-0.833 h -16.924 v -17.58 c 0,-0.595 -0.237,-0.834 -0.834,-0.834 h -4.052 c -0.595,0 -0.834,0.239 -0.834,0.834 V 0 c 0,0.595 0.239,0.834 0.834,0.834 H -0.835 C -0.238,0.834 0,0.595 0,0"
       style="fill:#003465;fill-opacity:1;fill-rule:nonzero;stroke:none"
       transform="matrix(1.3333333,0,0,-1.3333333,2859.1591,481.73733)"
       clip-path="url(#clipPath459)" />
    <path
       id="path460"
       d="M 0,0 V -3.516 C 0,-4.112 -0.239,-4.35 -0.835,-4.35 h -18.353 v -13.11 h 16.924 c 0.595,0 0.833,-0.238 0.833,-0.834 v -3.337 c 0,-0.596 -0.238,-0.833 -0.833,-0.833 h -16.924 v -17.58 c 0,-0.595 -0.238,-0.834 -0.834,-0.834 h -4.052 c -0.596,0 -0.834,0.239 -0.834,0.834 V 0 c 0,0.595 0.238,0.834 0.834,0.834 H -0.835 C -0.239,0.834 0,0.595 0,0"
       style="fill:#003465;fill-opacity:1;fill-rule:nonzero;stroke:none"
       transform="matrix(1.3333333,0,0,-1.3333333,2908.0016,481.73733)"
       clip-path="url(#clipPath461)" />
    <path
       id="path462"
       d="m 0,0 v 40.044 c 0,0.595 0.298,0.834 0.894,0.834 h 23.179 c 0.596,0 0.835,-0.239 0.835,-0.834 v -3.516 c 0,-0.596 -0.239,-0.835 -0.835,-0.835 H 5.72 V 22.584 h 16.804 c 0.596,0 0.894,-0.238 0.894,-0.834 v -3.337 c 0,-0.596 -0.298,-0.834 -0.894,-0.834 H 5.72 V 4.35 h 18.532 c 0.597,0 0.894,-0.238 0.894,-0.834 V 0 c 0,-0.595 -0.297,-0.834 -0.894,-0.834 H 0.894 C 0.298,-0.834 0,-0.595 0,0"
       style="fill:#003465;fill-opacity:1;fill-rule:nonzero;stroke:none"
       transform="matrix(1.3333333,0,0,-1.3333333,2923.6344,535.12907)"
       clip-path="url(#clipPath463)" />
    <path
       id="path464"
       d="m 0,0 v 40.044 c 0,0.595 0.298,0.834 0.894,0.834 h 23.179 c 0.596,0 0.835,-0.239 0.835,-0.834 v -3.516 c 0,-0.596 -0.239,-0.835 -0.835,-0.835 H 5.72 V 22.584 h 16.804 c 0.596,0 0.894,-0.238 0.894,-0.834 v -3.337 c 0,-0.596 -0.298,-0.834 -0.894,-0.834 H 5.72 V 4.35 h 18.532 c 0.596,0 0.894,-0.238 0.894,-0.834 V 0 c 0,-0.595 -0.298,-0.834 -0.894,-0.834 H 0.894 C 0.298,-0.834 0,-0.595 0,0"
       style="fill:#003465;fill-opacity:1;fill-rule:nonzero;stroke:none"
       transform="matrix(1.3333333,0,0,-1.3333333,2972.7909,535.12907)"
       clip-path="url(#clipPath465)" />
    <path
       id="path466"
       d="m 0,0 v -3.822 c 0,-0.378 0.304,-0.68 0.682,-0.69 4.275,-0.121 7.063,-1.566 7.026,-7.083 V -29.352 C 7.864,-35.463 3.751,-36.534 0.7,-36.476 0.314,-36.468 0,-36.778 0,-37.164 v -3.786 c 0,-0.376 0.301,-0.688 0.677,-0.692 6.59,-0.071 12.752,2.245 12.752,12.112 v 18.114 C 13.682,-2.327 8.14,0.726 0.681,0.692 0.304,0.69 0,0.377 0,0"
       style="fill:#003465;fill-opacity:1;fill-rule:nonzero;stroke:none"
       transform="matrix(1.3333333,0,0,-1.3333333,2791.0487,481.11267)"
       clip-path="url(#clipPath467)" />
    <path
       id="path468"
       d="m 0,0 v -3.822 c 0,-0.378 -0.304,-0.68 -0.682,-0.69 -4.275,-0.121 -7.063,-1.566 -7.026,-7.083 v -17.757 c -0.156,-6.111 3.957,-7.182 7.008,-7.124 0.386,0.008 0.7,-0.302 0.7,-0.688 v -3.786 c 0,-0.376 -0.301,-0.688 -0.677,-0.692 -6.59,-0.071 -12.753,2.245 -12.753,12.112 v 18.114 C -13.682,-2.327 -8.14,0.726 -0.681,0.692 -0.304,0.69 0,0.377 0,0"
       style="fill:#003465;fill-opacity:1;fill-rule:nonzero;stroke:none"
       transform="matrix(1.3333333,0,0,-1.3333333,2786.9076,481.11267)"
       clip-path="url(#clipPath469)" />
    <path
       id="path470"
       d="m 225.386,104.85 h 2.727 V 92.454 h -2.727 z"
       style="fill:#003465;fill-opacity:1;fill-rule:nonzero;stroke:none"
       transform="matrix(1.3333333,0,0,-1.3333333,2113.6,698.88)"
       clip-path="url(#clipPath471)" />
    <path
       id="path472"
       d="M 0,0 V -9.882 H -2.727 V 0 H -6.499 V 2.514 H 3.772 V 0 Z"
       style="fill:#003465;fill-opacity:1;fill-rule:nonzero;stroke:none"
       transform="matrix(1.3333333,0,0,-1.3333333,2434.0919,562.43227)"
       clip-path="url(#clipPath473)" />
    <path
       id="path474"
       d="m 0,0 -1.647,-4.021 h 3.294 z m 3.755,-9.209 -1.134,2.78 h -5.242 l -1.133,-2.78 H -6.535 L -1.222,3.276 H 1.293 L 6.606,-9.209 Z"
       style="fill:#003465;fill-opacity:1;fill-rule:nonzero;stroke:none"
       transform="matrix(1.3333333,0,0,-1.3333333,2453.9255,563.32973)"
       clip-path="url(#clipPath475)" />
    <path
       id="path476"
       d="M 0,0 V 12.396 H 2.727 V 2.46 H 8.908 V 0 Z"
       style="fill:#003465;fill-opacity:1;fill-rule:nonzero;stroke:none"
       transform="matrix(1.3333333,0,0,-1.3333333,2470.0056,575.60813)"
       clip-path="url(#clipPath477)" />
    <path
       id="path478"
       d="m 0,0 v -4.941 h -2.727 v 4.888 l -4.764,7.508 h 3.188 l 2.957,-4.976 3.011,4.976 h 3.099 z"
       style="fill:#003465;fill-opacity:1;fill-rule:nonzero;stroke:none"
       transform="matrix(1.3333333,0,0,-1.3333333,2497.6315,569.02013)"
       clip-path="url(#clipPath479)" />
    <path
       id="path480"
       d="m 0,0 h -1.08 v 2.833 h 2.851 v -2.39 c 0,-1.17 -0.284,-2.01 -0.85,-2.524 -0.567,-0.513 -1.375,-0.777 -2.426,-0.789 l -0.231,1.116 C -0.484,-1.624 0.094,-1.039 0,0"
       style="fill:#003465;fill-opacity:1;fill-rule:nonzero;stroke:none"
       transform="matrix(1.3333333,0,0,-1.3333333,2512.0117,562.8576)"
       clip-path="url(#clipPath481)" />
    <path
       id="path482"
       d="M 0,0 C -0.223,-0.479 -0.534,-0.88 -0.932,-1.204 -1.331,-1.53 -1.807,-1.777 -2.36,-1.949 -2.914,-2.12 -3.526,-2.205 -4.199,-2.205 c -0.945,0 -1.872,0.162 -2.781,0.486 -0.909,0.326 -1.735,0.824 -2.479,1.497 l 1.612,1.931 c 0.566,-0.461 1.148,-0.827 1.744,-1.099 0.596,-0.271 1.248,-0.406 1.957,-0.406 0.567,0 1.006,0.102 1.319,0.309 0.313,0.207 0.47,0.493 0.47,0.858 v 0.037 c 0,0.177 -0.033,0.333 -0.098,0.468 -0.066,0.137 -0.19,0.264 -0.373,0.381 -0.184,0.118 -0.438,0.237 -0.764,0.354 -0.325,0.118 -0.748,0.242 -1.269,0.372 -0.628,0.154 -1.196,0.324 -1.705,0.515 -0.509,0.189 -0.941,0.421 -1.296,0.698 -0.355,0.277 -0.63,0.623 -0.826,1.037 -0.195,0.413 -0.293,0.926 -0.293,1.54 v 0.035 c 0,0.567 0.106,1.078 0.317,1.532 0.211,0.455 0.507,0.847 0.888,1.178 0.382,0.331 0.837,0.584 1.366,0.762 0.529,0.177 1.113,0.265 1.75,0.265 0.909,0 1.745,-0.135 2.506,-0.407 0.762,-0.271 1.461,-0.662 2.099,-1.168 L -1.472,6.915 C -2.027,7.293 -2.57,7.59 -3.101,7.809 -3.633,8.028 -4.164,8.136 -4.695,8.136 -5.226,8.136 -5.625,8.033 -5.891,7.827 -6.156,7.62 -6.289,7.363 -6.289,7.057 V 7.021 c 0,-0.201 0.038,-0.375 0.115,-0.522 C -6.096,6.351 -5.958,6.219 -5.756,6.1 -5.555,5.982 -5.28,5.87 -4.931,5.764 -4.581,5.658 -4.14,5.534 -3.608,5.392 -2.98,5.227 -2.421,5.041 -1.93,4.834 -1.439,4.627 -1.024,4.38 -0.687,4.091 -0.35,3.8 -0.095,3.461 0.077,3.072 0.248,2.683 0.334,2.217 0.334,1.674 V 1.637 C 0.334,1.024 0.223,0.478 0,0"
       style="fill:#003465;fill-opacity:1;fill-rule:nonzero;stroke:none"
       transform="matrix(1.3333333,0,0,-1.3333333,2533.9505,572.9044)"
       clip-path="url(#clipPath483)" />
    <path
       id="path484"
       d="M 0,0 V -2.673 H 5.915 V -5.135 H 0 V -9.934 H -2.727 V 2.462 H 6.712 V 0 Z"
       style="fill:#003465;fill-opacity:1;fill-rule:nonzero;stroke:none"
       transform="matrix(1.3333333,0,0,-1.3333333,2557.7251,562.3632)"
       clip-path="url(#clipPath485)" />
    <path
       id="path486"
       d="m 345.649,104.85 h 2.727 V 92.454 h -2.727 z"
       style="fill:#003465;fill-opacity:1;fill-rule:nonzero;stroke:none"
       transform="matrix(1.3333333,0,0,-1.3333333,2113.6,698.88)"
       clip-path="url(#clipPath487)" />
    <path
       id="path488"
       d="M 0,0 -6.004,7.881 V 0 h -2.692 v 12.396 h 2.515 l 5.809,-7.632 v 7.632 H 2.32 V 0 Z"
       style="fill:#003465;fill-opacity:1;fill-rule:nonzero;stroke:none"
       transform="matrix(1.3333333,0,0,-1.3333333,2598.5508,575.60813)"
       clip-path="url(#clipPath489)" />
    <path
       id="path490"
       d="M 0,0 V 12.396 H 9.333 V 9.97 H 2.692 V 7.455 H 8.536 V 5.03 H 2.692 V 2.425 H 9.421 V 0 Z"
       style="fill:#003465;fill-opacity:1;fill-rule:nonzero;stroke:none"
       transform="matrix(1.3333333,0,0,-1.3333333,2610.3332,575.60813)"
       clip-path="url(#clipPath491)" />
    <path
       id="path492"
       d="M 0,0 C -0.223,-0.479 -0.534,-0.88 -0.932,-1.204 -1.331,-1.53 -1.807,-1.777 -2.36,-1.949 -2.914,-2.12 -3.526,-2.205 -4.199,-2.205 c -0.945,0 -1.872,0.162 -2.781,0.486 -0.909,0.326 -1.735,0.824 -2.479,1.497 l 1.612,1.931 c 0.566,-0.461 1.148,-0.827 1.744,-1.099 0.596,-0.271 1.248,-0.406 1.957,-0.406 0.567,0 1.006,0.102 1.319,0.309 0.313,0.207 0.47,0.493 0.47,0.858 v 0.037 c 0,0.177 -0.033,0.333 -0.098,0.468 -0.066,0.137 -0.19,0.264 -0.373,0.381 -0.184,0.118 -0.438,0.237 -0.764,0.354 -0.325,0.118 -0.748,0.242 -1.269,0.372 -0.628,0.154 -1.196,0.324 -1.705,0.515 -0.509,0.189 -0.941,0.421 -1.296,0.698 -0.355,0.277 -0.63,0.623 -0.826,1.037 -0.195,0.413 -0.293,0.926 -0.293,1.54 v 0.035 c 0,0.567 0.106,1.078 0.317,1.532 0.211,0.455 0.507,0.847 0.888,1.178 0.382,0.331 0.837,0.584 1.366,0.762 0.529,0.177 1.113,0.265 1.75,0.265 0.909,0 1.745,-0.135 2.506,-0.407 0.762,-0.271 1.461,-0.662 2.099,-1.168 L -1.472,6.915 C -2.027,7.293 -2.57,7.59 -3.101,7.809 -3.633,8.028 -4.164,8.136 -4.695,8.136 -5.226,8.136 -5.625,8.033 -5.891,7.827 -6.156,7.62 -6.289,7.363 -6.289,7.057 V 7.021 c 0,-0.201 0.038,-0.375 0.115,-0.522 C -6.096,6.351 -5.958,6.219 -5.756,6.1 -5.555,5.982 -5.28,5.87 -4.931,5.764 -4.581,5.658 -4.14,5.534 -3.608,5.392 -2.98,5.227 -2.421,5.041 -1.93,4.834 -1.439,4.627 -1.024,4.38 -0.687,4.091 -0.35,3.8 -0.095,3.461 0.077,3.072 0.248,2.683 0.335,2.217 0.335,1.674 V 1.637 C 0.335,1.024 0.223,0.478 0,0"
       style="fill:#003465;fill-opacity:1;fill-rule:nonzero;stroke:none"
       transform="matrix(1.3333333,0,0,-1.3333333,2642.3777,572.9044)"
       clip-path="url(#clipPath493)" />
    <path
       id="path494"
       d="M 0,0 V -9.882 H -2.727 V 0 H -6.499 V 2.514 H 3.772 V 0 Z"
       style="fill:#003465;fill-opacity:1;fill-rule:nonzero;stroke:none"
       transform="matrix(1.3333333,0,0,-1.3333333,2658.1956,562.43227)"
       clip-path="url(#clipPath495)" />
    <path
       id="path496"
       d="m 0,0 c -0.342,-0.271 -0.717,-0.504 -1.125,-0.698 -0.407,-0.196 -0.852,-0.343 -1.336,-0.443 -0.485,-0.1 -1.028,-0.15 -1.63,-0.15 -0.909,0 -1.753,0.165 -2.532,0.494 -0.779,0.331 -1.452,0.784 -2.019,1.355 -0.567,0.573 -1.009,1.249 -1.328,2.028 -0.319,0.78 -0.478,1.612 -0.478,2.497 v 0.035 c 0,0.887 0.159,1.716 0.478,2.489 0.319,0.773 0.761,1.451 1.328,2.036 0.567,0.585 1.246,1.046 2.036,1.382 0.791,0.337 1.665,0.504 2.622,0.504 0.578,0 1.106,-0.047 1.584,-0.14 0.479,-0.096 0.913,-0.226 1.302,-0.391 0.39,-0.166 0.75,-0.366 1.08,-0.602 C 0.313,10.159 0.62,9.9 0.903,9.616 L -0.832,7.615 c -0.484,0.438 -0.977,0.78 -1.479,1.028 -0.502,0.248 -1.066,0.372 -1.691,0.372 -0.52,0 -1.001,-0.1 -1.443,-0.301 C -5.888,8.512 -6.269,8.235 -6.588,7.881 -6.907,7.527 -7.155,7.117 -7.332,6.651 -7.509,6.184 -7.597,5.686 -7.597,5.155 V 5.118 c 0,-0.531 0.088,-1.032 0.265,-1.505 0.177,-0.471 0.422,-0.885 0.735,-1.239 0.313,-0.354 0.691,-0.635 1.134,-0.841 0.443,-0.207 0.93,-0.31 1.461,-0.31 0.708,0 1.307,0.13 1.798,0.389 0.489,0.26 0.976,0.615 1.46,1.062 L 0.992,0.922 C 0.673,0.58 0.342,0.272 0,0"
       style="fill:#003465;fill-opacity:1;fill-rule:nonzero;stroke:none"
       transform="matrix(1.3333333,0,0,-1.3333333,2695.7385,574.16947)"
       clip-path="url(#clipPath497)" />
    <path
       id="path498"
       d="m 0,0 c 0,0.533 -0.091,1.034 -0.274,1.507 -0.184,0.471 -0.443,0.885 -0.78,1.239 -0.336,0.354 -0.735,0.635 -1.195,0.84 -0.46,0.207 -0.962,0.311 -1.505,0.311 -0.555,0 -1.06,-0.1 -1.514,-0.301 C -5.723,3.394 -6.113,3.117 -6.437,2.763 -6.762,2.409 -7.016,1.999 -7.198,1.533 -7.382,1.066 -7.473,0.568 -7.473,0.037 V 0 c 0,-0.531 0.091,-1.032 0.275,-1.505 0.182,-0.471 0.442,-0.885 0.779,-1.239 0.336,-0.355 0.731,-0.635 1.186,-0.841 0.454,-0.207 0.959,-0.31 1.514,-0.31 0.543,0 1.045,0.1 1.505,0.3 0.461,0.201 0.853,0.478 1.178,0.834 0.325,0.354 0.578,0.763 0.762,1.229 C -0.091,-1.064 0,-0.566 0,-0.035 Z M 2.356,-2.487 C 2.025,-3.261 1.568,-3.939 0.983,-4.523 c -0.584,-0.585 -1.281,-1.046 -2.09,-1.382 -0.808,-0.337 -1.691,-0.504 -2.647,-0.504 -0.956,0 -1.836,0.167 -2.639,0.504 -0.803,0.336 -1.496,0.79 -2.081,1.363 -0.584,0.573 -1.039,1.246 -1.363,2.02 -0.325,0.773 -0.487,1.602 -0.487,2.487 V 0 c 0,0.887 0.165,1.715 0.495,2.489 0.331,0.773 0.789,1.451 1.373,2.036 0.584,0.585 1.281,1.046 2.09,1.381 0.808,0.338 1.691,0.505 2.647,0.505 0.957,0 1.836,-0.167 2.639,-0.505 C -0.277,5.571 0.416,5.116 1.001,4.543 1.585,3.97 2.04,3.297 2.364,2.524 2.689,1.751 2.851,0.922 2.851,0.037 V 0 c 0,-0.885 -0.165,-1.714 -0.495,-2.487"
       style="fill:#003465;fill-opacity:1;fill-rule:nonzero;stroke:none"
       transform="matrix(1.3333333,0,0,-1.3333333,2717.7213,567.34533)"
       clip-path="url(#clipPath499)" />
    <path
       id="path500"
       d="M 0,0 V -2.673 H 5.915 V -5.135 H 0 V -9.934 H -2.727 V 2.462 H 6.712 V 0 Z"
       style="fill:#003465;fill-opacity:1;fill-rule:nonzero;stroke:none"
       transform="matrix(1.3333333,0,0,-1.3333333,2733.1167,562.3632)"
       clip-path="url(#clipPath501)" />
    <path
       id="path502"
       d="M 0,0 V -2.673 H 5.915 V -5.135 H 0 V -9.934 H -2.727 V 2.462 H 6.712 V 0 Z"
       style="fill:#003465;fill-opacity:1;fill-rule:nonzero;stroke:none"
       transform="matrix(1.3333333,0,0,-1.3333333,2753.3288,562.3632)"
       clip-path="url(#clipPath503)" />
    <path
       id="path504"
       d="M 0,0 V 12.396 H 9.333 V 9.97 H 2.692 V 7.455 H 8.536 V 5.03 H 2.692 V 2.425 H 9.421 V 0 Z"
       style="fill:#003465;fill-opacity:1;fill-rule:nonzero;stroke:none"
       transform="matrix(1.3333333,0,0,-1.3333333,2769.9045,575.60813)"
       clip-path="url(#clipPath505)" />
    <path
       id="path506"
       d="M 0,0 V 12.396 H 9.333 V 9.97 H 2.692 V 7.455 H 8.536 V 5.03 H 2.692 V 2.425 H 9.421 V 0 Z"
       style="fill:#003465;fill-opacity:1;fill-rule:nonzero;stroke:none"
       transform="matrix(1.3333333,0,0,-1.3333333,2790.4475,575.60813)"
       clip-path="url(#clipPath507)" />
    <path
       id="path508"
       d="m 0,0 c -0.218,0.2 -0.499,0.301 -0.841,0.301 -0.366,0 -0.659,-0.119 -0.877,-0.354 -0.218,-0.236 -0.327,-0.543 -0.327,-0.921 0,-0.284 0.056,-0.541 0.168,-0.77 0.112,-0.23 0.298,-0.494 0.558,-0.788 0.543,0.2 0.953,0.427 1.23,0.681 0.278,0.254 0.417,0.582 0.417,0.982 C 0.328,-0.489 0.218,-0.2 0,0 M -2.187,-5.011 C -2.6,-5.225 -2.896,-5.476 -3.073,-5.764 -3.25,-6.053 -3.338,-6.352 -3.338,-6.658 c 0,-0.449 0.162,-0.807 0.487,-1.073 0.325,-0.265 0.74,-0.397 1.248,-0.397 0.307,0 0.611,0.062 0.912,0.185 0.301,0.124 0.594,0.298 0.877,0.523 z m 5.33,-5.421 -1.434,1.454 c -0.508,-0.415 -1.06,-0.747 -1.656,-1.001 -0.596,-0.254 -1.254,-0.381 -1.974,-0.381 -0.591,0 -1.14,0.082 -1.647,0.248 -0.508,0.165 -0.948,0.404 -1.32,0.718 -0.372,0.312 -0.664,0.69 -0.876,1.132 -0.213,0.443 -0.319,0.942 -0.319,1.497 0,0.803 0.206,1.485 0.62,2.045 0.413,0.561 1.009,1.018 1.788,1.373 -0.307,0.437 -0.528,0.853 -0.664,1.249 -0.136,0.394 -0.204,0.81 -0.204,1.248 0,0.424 0.083,0.835 0.248,1.231 0.166,0.396 0.408,0.743 0.727,1.044 0.318,0.302 0.711,0.543 1.177,0.726 0.466,0.184 1.001,0.274 1.603,0.274 0.531,0 1.009,-0.078 1.434,-0.238 C 1.072,2.028 1.437,1.806 1.744,1.523 2.051,1.239 2.287,0.905 2.453,0.523 2.618,0.139 2.701,-0.272 2.701,-0.708 2.701,-1.547 2.458,-2.225 1.974,-2.744 1.49,-3.266 0.865,-3.671 0.097,-3.967 l 1.647,-1.647 c 0.201,0.319 0.402,0.658 0.602,1.019 0.201,0.359 0.402,0.728 0.603,1.106 L 4.95,-4.587 C 4.713,-5.025 4.46,-5.467 4.188,-5.915 3.917,-6.364 3.627,-6.795 3.32,-7.208 l 1.825,-1.824 z"
       style="fill:#003465;fill-opacity:1;fill-rule:nonzero;stroke:none"
       transform="matrix(1.3333333,0,0,-1.3333333,2829.7264,562.03133)"
       clip-path="url(#clipPath509)" />
    <path
       id="path510"
       d="m 0,0 c 0,0.613 -0.198,1.079 -0.593,1.398 -0.396,0.319 -0.936,0.478 -1.621,0.478 h -2.107 v -3.789 h 2.16 c 0.685,0 1.216,0.179 1.594,0.54 C -0.189,-1.012 0,-0.568 0,-0.037 Z M 2.373,-1.878 C 2.113,-2.42 1.756,-2.876 1.302,-3.242 0.847,-3.608 0.316,-3.882 -0.292,-4.066 -0.901,-4.248 -1.553,-4.34 -2.249,-4.34 H -4.321 V -8.058 H -7.049 V 4.338 h 5.065 c 0.744,0 1.408,-0.104 1.993,-0.309 C 0.593,3.822 1.089,3.53 1.496,3.152 1.903,2.775 2.216,2.322 2.435,1.797 2.653,1.271 2.762,0.69 2.762,0.052 V 0.017 c 0,-0.72 -0.129,-1.352 -0.389,-1.895"
       style="fill:#003465;fill-opacity:1;fill-rule:nonzero;stroke:none"
       transform="matrix(1.3333333,0,0,-1.3333333,2865.1568,564.86427)"
       clip-path="url(#clipPath511)" />
    <path
       id="path512"
       d="m 0,0 -1.647,-4.021 h 3.294 z m 3.755,-9.209 -1.134,2.78 h -5.242 l -1.133,-2.78 H -6.535 L -1.222,3.276 H 1.293 L 6.605,-9.209 Z"
       style="fill:#003465;fill-opacity:1;fill-rule:nonzero;stroke:none"
       transform="matrix(1.3333333,0,0,-1.3333333,2883.5505,563.32973)"
       clip-path="url(#clipPath513)" />
    <path
       id="path514"
       d="M 0,0 C -0.223,-0.479 -0.534,-0.88 -0.932,-1.204 -1.331,-1.53 -1.807,-1.777 -2.36,-1.949 -2.914,-2.12 -3.526,-2.205 -4.199,-2.205 c -0.945,0 -1.872,0.162 -2.781,0.486 -0.909,0.326 -1.735,0.824 -2.479,1.497 l 1.612,1.931 c 0.566,-0.461 1.148,-0.827 1.744,-1.099 0.596,-0.271 1.249,-0.406 1.957,-0.406 0.567,0 1.006,0.102 1.319,0.309 0.313,0.207 0.47,0.493 0.47,0.858 v 0.037 c 0,0.177 -0.033,0.333 -0.098,0.468 -0.066,0.137 -0.19,0.264 -0.373,0.381 -0.184,0.118 -0.438,0.237 -0.764,0.354 -0.325,0.118 -0.748,0.242 -1.269,0.372 -0.628,0.154 -1.196,0.324 -1.705,0.515 -0.509,0.189 -0.941,0.421 -1.296,0.698 -0.355,0.277 -0.63,0.623 -0.826,1.037 -0.195,0.413 -0.293,0.926 -0.293,1.54 v 0.035 c 0,0.567 0.106,1.078 0.317,1.532 0.211,0.455 0.507,0.847 0.888,1.178 0.382,0.331 0.837,0.584 1.366,0.762 0.529,0.177 1.113,0.265 1.751,0.265 0.908,0 1.744,-0.135 2.505,-0.407 0.762,-0.271 1.461,-0.662 2.099,-1.168 L -1.472,6.915 C -2.027,7.293 -2.57,7.59 -3.101,7.809 -3.633,8.028 -4.164,8.136 -4.695,8.136 -5.226,8.136 -5.625,8.033 -5.891,7.827 -6.156,7.62 -6.289,7.363 -6.289,7.057 V 7.021 c 0,-0.201 0.038,-0.375 0.115,-0.522 C -6.096,6.351 -5.958,6.219 -5.756,6.1 -5.555,5.982 -5.28,5.87 -4.931,5.764 -4.581,5.658 -4.14,5.534 -3.608,5.392 -2.98,5.227 -2.421,5.041 -1.93,4.834 -1.439,4.627 -1.024,4.38 -0.687,4.091 -0.349,3.8 -0.095,3.461 0.077,3.072 0.248,2.683 0.335,2.217 0.335,1.674 V 1.637 C 0.335,1.024 0.223,0.478 0,0"
       style="fill:#003465;fill-opacity:1;fill-rule:nonzero;stroke:none"
       transform="matrix(1.3333333,0,0,-1.3333333,2911.1329,572.9044)"
       clip-path="url(#clipPath515)" />
    <path
       id="path516"
       d="M 0,0 V -9.882 H -2.727 V 0 H -6.499 V 2.514 H 3.772 V 0 Z"
       style="fill:#003465;fill-opacity:1;fill-rule:nonzero;stroke:none"
       transform="matrix(1.3333333,0,0,-1.3333333,2926.9503,562.43227)"
       clip-path="url(#clipPath517)" />
    <path
       id="path518"
       d="M 0,0 C 0,0.591 -0.189,1.034 -0.567,1.328 -0.945,1.624 -1.47,1.771 -2.143,1.771 h -2.709 v -3.56 h 2.762 c 0.673,0 1.19,0.16 1.55,0.479 C -0.18,-0.991 0,-0.566 0,-0.035 Z M -0.053,-8.163 -2.71,-4.196 H -4.852 V -8.163 H -7.58 V 4.233 h 5.667 c 1.476,0 2.624,-0.361 3.445,-1.081 0.82,-0.72 1.231,-1.724 1.231,-3.01 V 0.107 c 0,-1.004 -0.246,-1.821 -0.735,-2.452 -0.49,-0.633 -1.131,-1.096 -1.922,-1.392 l 3.028,-4.426 z"
       style="fill:#003465;fill-opacity:1;fill-rule:nonzero;stroke:none"
       transform="matrix(1.3333333,0,0,-1.3333333,2949.5945,564.724)"
       clip-path="url(#clipPath519)" />
    <path
       id="path520"
       d="m 635.886,104.85 h 2.727 V 92.454 h -2.727 z"
       style="fill:#003465;fill-opacity:1;fill-rule:nonzero;stroke:none"
       transform="matrix(1.3333333,0,0,-1.3333333,2113.6,698.88)"
       clip-path="url(#clipPath521)" />
    <path
       id="path522"
       d="M 0,0 V 12.396 H 9.333 V 9.97 H 2.692 V 7.455 H 8.536 V 5.03 H 2.692 V 2.425 H 9.421 V 0 Z"
       style="fill:#003465;fill-opacity:1;fill-rule:nonzero;stroke:none"
       transform="matrix(1.3333333,0,0,-1.3333333,2973.9387,575.60813)"
       clip-path="url(#clipPath523)" />
    <path
       id="path524"
       d="M 0,0 C -0.223,-0.479 -0.534,-0.88 -0.932,-1.204 -1.331,-1.53 -1.807,-1.777 -2.36,-1.949 -2.914,-2.12 -3.526,-2.205 -4.199,-2.205 c -0.945,0 -1.872,0.162 -2.781,0.486 -0.909,0.326 -1.735,0.824 -2.479,1.497 l 1.612,1.931 C -7.281,1.248 -6.7,0.882 -6.103,0.61 c 0.596,-0.271 1.248,-0.406 1.957,-0.406 0.567,0 1.006,0.102 1.319,0.309 0.313,0.207 0.47,0.493 0.47,0.858 v 0.037 c 0,0.177 -0.033,0.333 -0.098,0.468 -0.066,0.137 -0.19,0.264 -0.373,0.381 -0.184,0.118 -0.438,0.237 -0.764,0.354 -0.325,0.118 -0.749,0.242 -1.269,0.372 -0.628,0.154 -1.196,0.324 -1.705,0.515 -0.509,0.189 -0.941,0.421 -1.296,0.698 -0.355,0.277 -0.63,0.623 -0.826,1.037 -0.195,0.413 -0.293,0.926 -0.293,1.54 v 0.035 c 0,0.567 0.106,1.078 0.317,1.532 0.211,0.455 0.507,0.847 0.888,1.178 0.382,0.331 0.837,0.584 1.366,0.762 0.529,0.177 1.113,0.265 1.75,0.265 0.909,0 1.745,-0.135 2.506,-0.407 0.762,-0.271 1.461,-0.662 2.099,-1.168 L -1.472,6.915 C -2.027,7.293 -2.57,7.59 -3.101,7.809 -3.633,8.028 -4.164,8.136 -4.695,8.136 -5.226,8.136 -5.625,8.033 -5.891,7.827 -6.156,7.62 -6.289,7.363 -6.289,7.057 V 7.021 c 0,-0.201 0.038,-0.375 0.115,-0.522 0.078,-0.148 0.216,-0.28 0.418,-0.399 0.201,-0.118 0.476,-0.23 0.825,-0.336 0.35,-0.106 0.79,-0.23 1.323,-0.372 C -2.98,5.227 -2.421,5.041 -1.93,4.834 -1.439,4.627 -1.024,4.38 -0.687,4.091 -0.35,3.8 -0.095,3.461 0.077,3.072 0.248,2.683 0.334,2.217 0.334,1.674 V 1.637 C 0.334,1.024 0.223,0.478 0,0"
       style="fill:#003465;fill-opacity:1;fill-rule:nonzero;stroke:none"
       transform="matrix(1.3333333,0,0,-1.3333333,3005.9837,572.9044)"
       clip-path="url(#clipPath525)" />
  </g>
</svg>
